<svg width="218" height="122" viewBox="0 0 218 122" fill="none" xmlns="http://www.w3.org/2000/svg">
<g clip-path="url(#clip0_55000_28364)">
<path d="M0 121.182L21.0539 21.7821H34.4426L55.7009 121.182H42.5166L38.0197 96.1274H17.7834L12.9798 121.182H0ZM19.6231 86.2079H36.18L27.7993 41.4166L19.6231 86.2079Z" fill="white"/>
<path d="M70.1116 121.284V110.649H79.6165V121.284H70.1116Z" fill="#B8B7B7"/>
<path d="M91.2677 121.284V56.6538H79.1055V49.1886H113.139V56.6538H101.386V121.284H91.2677Z" fill="#B8B7B7"/>
<path d="M127.959 122C123.973 122 120.805 121.182 118.658 119.648C116.512 118.114 114.979 115.762 114.059 112.694C113.241 109.626 112.73 105.842 112.73 101.445V89.6848C112.73 85.083 113.139 81.2992 114.059 78.3336C114.979 75.2657 116.512 73.0159 118.76 71.482C121.009 69.948 124.075 69.1299 127.959 69.1299C132.251 69.1299 135.42 70.0503 137.464 71.7888C139.508 73.5272 140.836 76.0838 141.552 79.4585C142.165 82.8332 142.574 86.8215 142.574 91.5256V95.7184H122.338V106.047C122.338 108.092 122.542 109.831 122.951 111.16C123.36 112.49 123.973 113.41 124.79 114.023C125.608 114.637 126.732 114.944 128.163 114.944C129.594 114.944 130.718 114.637 131.434 113.921C132.149 113.205 132.66 112.285 132.967 110.956C133.273 109.728 133.376 108.194 133.376 106.456V103.388H142.574V105.331C142.574 110.444 141.45 114.535 139.303 117.5C136.953 120.466 133.171 122 127.959 122ZM122.235 90.6052H133.171V85.9011C133.171 83.7536 133.069 82.0151 132.865 80.4811C132.66 78.9472 132.149 77.9246 131.434 77.2087C130.718 76.4929 129.492 76.0838 127.959 76.0838C126.426 76.0838 125.199 76.3906 124.484 77.1065C123.564 77.9246 122.951 79.1517 122.644 80.7879C122.338 82.4241 122.235 84.7762 122.235 87.7418V90.6052Z" fill="#B8B7B7"/>
<path d="M165.161 122C160.97 122 157.802 121.182 155.554 119.443C153.407 117.705 151.977 115.353 151.159 112.285C150.443 109.217 150.035 105.638 150.035 101.547V89.6848C150.035 85.3898 150.443 81.606 151.159 78.6404C151.977 75.5725 153.407 73.2205 155.554 71.5842C157.7 69.948 160.868 69.1299 165.059 69.1299C168.84 69.1299 171.702 69.7435 173.746 70.9707C175.79 72.1978 177.221 74.0386 177.936 76.3906C178.856 78.7427 179.265 81.8106 179.265 85.2875V88.3554H170.68V85.2875C170.68 83.0377 170.578 81.197 170.271 79.9698C169.964 78.6404 169.453 77.72 168.636 77.1065C167.818 76.4929 166.796 76.1861 165.365 76.1861C163.832 76.1861 162.606 76.4929 161.788 77.2087C160.97 77.9246 160.459 79.1517 160.153 80.7879C159.846 82.4241 159.744 84.7762 159.744 87.6396V103.797C159.744 108.194 160.153 111.16 160.97 112.592C161.788 114.023 163.321 114.842 165.365 114.842C167 114.842 168.125 114.433 168.84 113.717C169.556 113.001 170.067 111.876 170.271 110.547C170.475 109.217 170.578 107.683 170.578 105.945V101.854H179.163V105.433C179.163 108.91 178.754 111.876 177.936 114.33C177.119 116.785 175.688 118.728 173.644 120.057C171.702 121.284 168.84 122 165.161 122Z" fill="#B8B7B7"/>
<path d="M187.952 121.284V49.1886H197.457V75.1635C199.195 73.5272 201.136 72.0956 203.283 70.8684C205.429 69.6412 207.78 69.1299 210.437 69.1299C212.481 69.1299 214.014 69.6412 215.138 70.7661C216.263 71.7888 216.978 73.2205 217.489 74.7544C217.898 76.3906 218.204 78.0268 218.204 79.663V121.284H208.495V82.4241C208.495 80.5834 208.188 79.1517 207.677 78.1291C207.166 77.1065 206.042 76.5951 204.407 76.5951C203.283 76.5951 202.158 76.9019 200.932 77.6178C199.706 78.2313 198.581 79.0495 197.559 79.9698V121.284H187.952Z" fill="#B8B7B7"/>
<path d="M27.7993 0C12.4688 0 0 3.68148 0 8.28332C0 12.8852 12.4688 16.5666 27.7993 16.5666C43.1299 16.5666 55.5987 12.8852 55.5987 8.28332C55.7009 3.68148 43.2321 0 27.7993 0ZM27.7993 11.1467C14.9217 11.1467 4.49695 9.20369 4.49695 6.74937C4.49695 4.29506 14.9217 2.35205 27.7993 2.35205C40.677 2.35205 51.1017 4.29506 51.1017 6.74937C51.2039 9.20369 40.7792 11.1467 27.7993 11.1467Z" fill="#F49819"/>
</g>
<defs>
<clipPath id="clip0_55000_28364">
<rect width="218" height="122" fill="white"/>
</clipPath>
</defs>
</svg>
